<?xml version="1.0" encoding="UTF-8"?>
<svg xmlns="http://www.w3.org/2000/svg" viewBox="121.89 0 232.44 102.05">
  <path fill="#4a6fa5" d="m300.47,0h-25.56c-3.48,0-6.71,1.83-8.51,4.82l-20.27,33.78-8.02-4.58v48.19l39.69-25.51-8.44-4.82L300.47,0Z"/>
  <path fill="#2b6cb0" d="m230.09,38.6l-20.27-33.78c-1.79-2.99-5.02-4.82-8.51-4.82h-25.56l31.12,51.87-8.44,4.82,39.69,25.51v-48.19l-8.02,4.58Z"/>
  <path fill="#63b3ed" d="m121.89,102.05h31.18L189.67,7.93C191.53,3.15,196.13,0,201.26,0h0-31.93C164.65,0,160.46,2.87,158.76,7.23l-36.87,94.82Z"/>
  <path fill="#9ab4cc" d="m354.33,102.05h-31.18S286.55,7.93,286.55,7.93C284.69,3.15,280.09,0,274.96,0h0,31.93c4.68,0,8.87,2.87,10.57,7.23l36.87,94.82Z"/>
</svg>
