<?xml version="1.0" encoding="UTF-8"?>
<svg id="Layer_2" xmlns="http://www.w3.org/2000/svg" viewBox="0 0 479.06 167.24">
  <defs>
    <style>
      .cls-1{fill:#384856;}
      .cls-1,.cls-2,.cls-3,.cls-4,.cls-5{stroke-width:0px;}
      .cls-2{fill:#63b3ed;}
      .cls-3{fill:#2b6cb0;}
      .cls-4{fill:#9ab4cc;}
      .cls-5{fill:#4a6fa5;}
    </style>
  </defs>
  <g id="Layer_1-2">
    <!-- M -->
    <path class="cls-1" d="m61.77,111.21l-24.5,27.22c-.23.25-.62.25-.84,0l-24.5-27.22c-.38-.42-.91-.66-1.47-.66H1.42c-.78,0-1.42.63-1.42,1.42v53.86c0,.78.63,1.42,1.42,1.42h8.5c.78,0,1.42-.63,1.42-1.42v-36.62c0-.52.64-.77.99-.38l22.42,24.76c1.13,1.24,3.08,1.24,4.2,0l22.42-24.76c.35-.38.99-.14.99.38v36.62c0,.78.63,1.42,1.42,1.42h8.5c.78,0,1.42-.63,1.42-1.42v-53.86c0-.78-.63-1.42-1.42-1.42h-9.04c-.56,0-1.1.24-1.47.66Z"/>
    <!-- o -->
    <path class="cls-1" d="m123.31,155.91h-19.84c-5.48,0-9.92-4.44-9.92-9.92v-14.17c0-5.48,4.44-9.92,9.92-9.92h19.84c5.48,0,9.92,4.44,9.92,9.92v14.17c0,5.48-4.44,9.92-9.92,9.92Zm-41.1-22.68v11.34c0,12.52,10.15,22.68,22.68,22.68h17.01c12.52,0,22.68-10.15,22.68-22.68v-11.34c0-12.52-10.15-22.68-22.68-22.68h-17.01c-12.52,0-22.68,10.15-22.68,22.68Z"/>
    <!-- v -->
    <path class="cls-1" d="m200.97,111.41l-20.47,40.73c-.21.42-.8.42-1.01,0l-20.47-40.73c-.24-.48-.73-.78-1.27-.78h-11.81c-.63,0-1.04.67-.76,1.23l27.44,54.6c.24.48.73.78,1.27.78h12.22c.54,0,1.03-.3,1.27-.78l27.44-54.6c.28-.57-.13-1.23-.76-1.23h-11.81c-.54,0-1.03.3-1.27.78Z"/>
    <!-- i -->
    <rect class="cls-1" x="221.1" y="110.55" width="11.34" height="56.69" rx="1.42" ry="1.42"/>
    <!-- n -->
    <path class="cls-1" d="m252.28,165.83v-41.1c0-1.57,1.27-2.84,2.84-2.84h28.35c1.57,0,2.83,1.27,2.83,2.83v41.1c0,.78.63,1.42,1.42,1.42h8.5c.78,0,1.42-.63,1.42-1.42v-41.1c0-7.83-6.35-14.17-14.17-14.17h-28.35c-7.83,0-14.17,6.35-14.17,14.17v41.1c0,.78.63,1.42,1.42,1.42h8.5c.78,0,1.42-.63,1.42-1.42Z"/>
    <!-- g -->
    <path class="cls-1" d="m327.4,121.89h31.18c.78,0,1.42-.63,1.42-1.42v-8.5c0-.78-.63-1.42-1.42-1.42h-29.76c-12.52,0-22.68,10.15-22.68,22.68v11.34c0,12.52,10.15,22.68,22.68,22.68h22.68c7.83,0,14.17-6.35,14.17-14.17v-18.43c0-.78-.63-1.42-1.42-1.42h-22.68c-.78,0-1.42.63-1.42,1.42v8.5c0,.78.63,1.42,1.42,1.42h12.76s0,8.5,0,8.5c0,1.57-1.27,2.83-2.83,2.83h-24.09c-5.48,0-9.92-4.44-9.92-9.92v-14.17c0-5.48,4.44-9.92,9.92-9.92Z"/>
    <!-- dash -->
    <rect class="cls-1" x="378.43" y="128.98" width="11.34" height="19.84" rx="1.42" ry="1.42" transform="translate(245.2 522.99) rotate(-90)"/>
    <!-- I -->
    <rect class="cls-1" x="402.52" y="110.55" width="11.34" height="56.69" rx="1.42" ry="1.42"/>
    <!-- T: horizontal bar + vertical stem -->
    <rect class="cls-1" x="422.36" y="110.55" width="45.35" height="11.34" rx="1.42" ry="1.42"/>
    <rect class="cls-1" x="439.27" y="110.55" width="11.34" height="56.69" rx="1.42" ry="1.42"/>

    <!-- Chevron icon — blauw tonen voor IT -->
    <path class="cls-5" d="m300.47,0h-25.56c-3.48,0-6.71,1.83-8.51,4.82l-20.27,33.78-8.02-4.58v48.19l39.69-25.51-8.44-4.82L300.47,0Z"/>
    <path class="cls-3" d="m230.09,38.6l-20.27-33.78c-1.79-2.99-5.02-4.82-8.51-4.82h-25.56l31.12,51.87-8.44,4.82,39.69,25.51v-48.19l-8.02,4.58Z"/>
    <path class="cls-2" d="m121.89,102.05h31.18L189.67,7.93C191.53,3.15,196.13,0,201.26,0h0-31.93C164.65,0,160.46,2.87,158.76,7.23l-36.87,94.82Z"/>
    <path class="cls-4" d="m354.33,102.05h-31.18S286.55,7.93,286.55,7.93C284.69,3.15,280.09,0,274.96,0h0,31.93c4.68,0,8.87,2.87,10.57,7.23l36.87,94.82Z"/>
  </g>
</svg>
